<svg width="61" height="60" viewBox="0 0 61 60" fill="none" xmlns="http://www.w3.org/2000/svg">
<path d="M30.5 30C27.75 30 25.3958 29.0208 23.4375 27.0625C21.4792 25.1042 20.5 22.75 20.5 20C20.5 17.25 21.4792 14.8958 23.4375 12.9375C25.3958 10.9792 27.75 10 30.5 10C33.25 10 35.6042 10.9792 37.5625 12.9375C39.5208 14.8958 40.5 17.25 40.5 20C40.5 22.75 39.5208 25.1042 37.5625 27.0625C35.6042 29.0208 33.25 30 30.5 30ZM10.5 50V43C10.5 41.5833 10.8646 40.2812 11.5938 39.0938C12.3229 37.9062 13.2917 37 14.5 36.375C17.0833 35.0833 19.7083 34.1146 22.375 33.4688C25.0417 32.8229 27.75 32.5 30.5 32.5C33.25 32.5 35.9583 32.8229 38.625 33.4688C41.2917 34.1146 43.9167 35.0833 46.5 36.375C47.7083 37 48.6771 37.9062 49.4062 39.0938C50.1354 40.2812 50.5 41.5833 50.5 43V50H10.5ZM15.5 45H45.5V43C45.5 42.5417 45.3854 42.125 45.1562 41.75C44.9271 41.375 44.625 41.0833 44.25 40.875C42 39.75 39.7292 38.9063 37.4375 38.3438C35.1458 37.7813 32.8333 37.5 30.5 37.5C28.1667 37.5 25.8542 37.7813 23.5625 38.3438C21.2708 38.9063 19 39.75 16.75 40.875C16.375 41.0833 16.0729 41.375 15.8438 41.75C15.6146 42.125 15.5 42.5417 15.5 43V45ZM30.5 25C31.875 25 33.0521 24.5104 34.0312 23.5312C35.0104 22.5521 35.5 21.375 35.5 20C35.5 18.625 35.0104 17.4479 34.0312 16.4688C33.0521 15.4896 31.875 15 30.5 15C29.125 15 27.9479 15.4896 26.9688 16.4688C25.9896 17.4479 25.5 18.625 25.5 20C25.5 21.375 25.9896 22.5521 26.9688 23.5312C27.9479 24.5104 29.125 25 30.5 25Z" fill="#0A58CA"/>
</svg>
